<?xml version="1.0" encoding="UTF-8" standalone="no"?>
<!DOCTYPE svg PUBLIC "-//W3C//DTD SVG 1.1//EN"
 "http://www.w3.org/Graphics/SVG/1.1/DTD/svg11.dtd">
<!-- Generated by graphviz version 2.38.0 (20140413.2041)
 -->
<!-- Title: snakemake_dag Pages: 1 -->
<svg width="1384pt" height="945pt"
 viewBox="0.00 0.00 1383.50 945.00" xmlns="http://www.w3.org/2000/svg" xmlns:xlink="http://www.w3.org/1999/xlink">
<g id="graph0" class="graph" transform="scale(1 1) rotate(0) translate(4 941)">
<title>snakemake_dag</title>
<polygon fill="white" stroke="none" points="-4,4 -4,-941 1379.5,-941 1379.5,4 -4,4"/>
<!-- 0 -->
<g id="node1" class="node"><title>0</title>
<path fill="none" stroke="#5663d8" stroke-width="2" stroke-dasharray="5,2" d="M634.5,-36C634.5,-36 604.5,-36 604.5,-36 598.5,-36 592.5,-30 592.5,-24 592.5,-24 592.5,-12 592.5,-12 592.5,-6 598.5,-0 604.5,-0 604.5,-0 634.5,-0 634.5,-0 640.5,-0 646.5,-6 646.5,-12 646.5,-12 646.5,-24 646.5,-24 646.5,-30 640.5,-36 634.5,-36"/>
<text text-anchor="middle" x="619.5" y="-15.5" font-family="sans" font-size="10.00">all</text>
</g>
<!-- 1 -->
<g id="node2" class="node"><title>1</title>
<path fill="none" stroke="#80d856" stroke-width="2" stroke-dasharray="5,2" d="M1100.5,-108C1100.5,-108 1044.5,-108 1044.5,-108 1038.5,-108 1032.5,-102 1032.5,-96 1032.5,-96 1032.5,-84 1032.5,-84 1032.5,-78 1038.5,-72 1044.5,-72 1044.5,-72 1100.5,-72 1100.5,-72 1106.5,-72 1112.5,-78 1112.5,-84 1112.5,-84 1112.5,-96 1112.5,-96 1112.5,-102 1106.5,-108 1100.5,-108"/>
<text text-anchor="middle" x="1072.5" y="-87.5" font-family="sans" font-size="10.00">clean_tseries</text>
</g>
<!-- 1&#45;&gt;0 -->
<g id="edge1" class="edge"><title>1&#45;&gt;0</title>
<path fill="none" stroke="grey" stroke-width="2" d="M1032.3,-82.788C945.396,-69.3592 741.095,-37.7895 656.839,-24.7698"/>
<polygon fill="grey" stroke="grey" stroke-width="2" points="657.122,-21.2721 646.705,-23.2039 656.053,-28.19 657.122,-21.2721"/>
</g>
<!-- 2 -->
<g id="node3" class="node"><title>2</title>
<path fill="none" stroke="#a7d856" stroke-width="2" stroke-dasharray="5,2" d="M298.5,-180C298.5,-180 234.5,-180 234.5,-180 228.5,-180 222.5,-174 222.5,-168 222.5,-168 222.5,-156 222.5,-156 222.5,-150 228.5,-144 234.5,-144 234.5,-144 298.5,-144 298.5,-144 304.5,-144 310.5,-150 310.5,-156 310.5,-156 310.5,-168 310.5,-168 310.5,-174 304.5,-180 298.5,-180"/>
<text text-anchor="middle" x="266.5" y="-159.5" font-family="sans" font-size="10.00">inflate_surface</text>
</g>
<!-- 2&#45;&gt;0 -->
<g id="edge2" class="edge"><title>2&#45;&gt;0</title>
<path fill="none" stroke="grey" stroke-width="2" d="M282.836,-143.745C303.095,-123.41 339.612,-90.1026 377.5,-72 445.29,-39.6106 533.243,-26.7461 582.279,-21.8414"/>
<polygon fill="grey" stroke="grey" stroke-width="2" points="582.794,-25.3086 592.422,-20.8858 582.137,-18.3394 582.794,-25.3086"/>
</g>
<!-- 3 -->
<g id="node4" class="node"><title>3</title>
<path fill="none" stroke="#a7d856" stroke-width="2" stroke-dasharray="5,2" d="M874.5,-180C874.5,-180 810.5,-180 810.5,-180 804.5,-180 798.5,-174 798.5,-168 798.5,-168 798.5,-156 798.5,-156 798.5,-150 804.5,-144 810.5,-144 810.5,-144 874.5,-144 874.5,-144 880.5,-144 886.5,-150 886.5,-156 886.5,-156 886.5,-168 886.5,-168 886.5,-174 880.5,-180 874.5,-180"/>
<text text-anchor="middle" x="842.5" y="-159.5" font-family="sans" font-size="10.00">inflate_surface</text>
</g>
<!-- 3&#45;&gt;0 -->
<g id="edge3" class="edge"><title>3&#45;&gt;0</title>
<path fill="none" stroke="grey" stroke-width="2" d="M835.134,-143.718C825.74,-123.673 807.647,-90.9584 782.5,-72 744.979,-43.7123 691.726,-30.1565 656.426,-23.9214"/>
<polygon fill="grey" stroke="grey" stroke-width="2" points="656.968,-20.4634 646.53,-22.2818 655.823,-27.3693 656.968,-20.4634"/>
</g>
<!-- 4 -->
<g id="node5" class="node"><title>4</title>
<path fill="none" stroke="#a7d856" stroke-width="2" stroke-dasharray="5,2" d="M462.5,-108C462.5,-108 398.5,-108 398.5,-108 392.5,-108 386.5,-102 386.5,-96 386.5,-96 386.5,-84 386.5,-84 386.5,-78 392.5,-72 398.5,-72 398.5,-72 462.5,-72 462.5,-72 468.5,-72 474.5,-78 474.5,-84 474.5,-84 474.5,-96 474.5,-96 474.5,-102 468.5,-108 462.5,-108"/>
<text text-anchor="middle" x="430.5" y="-87.5" font-family="sans" font-size="10.00">inflate_surface</text>
</g>
<!-- 4&#45;&gt;0 -->
<g id="edge4" class="edge"><title>4&#45;&gt;0</title>
<path fill="none" stroke="grey" stroke-width="2" d="M474.812,-72.5881C507.695,-60.4092 551.999,-44.0003 582.885,-32.5611"/>
<polygon fill="grey" stroke="grey" stroke-width="2" points="584.248,-35.7887 592.41,-29.0334 581.817,-29.2244 584.248,-35.7887"/>
</g>
<!-- 5 -->
<g id="node6" class="node"><title>5</title>
<path fill="none" stroke="#a7d856" stroke-width="2" stroke-dasharray="5,2" d="M761.5,-108C761.5,-108 697.5,-108 697.5,-108 691.5,-108 685.5,-102 685.5,-96 685.5,-96 685.5,-84 685.5,-84 685.5,-78 691.5,-72 697.5,-72 697.5,-72 761.5,-72 761.5,-72 767.5,-72 773.5,-78 773.5,-84 773.5,-84 773.5,-96 773.5,-96 773.5,-102 767.5,-108 761.5,-108"/>
<text text-anchor="middle" x="729.5" y="-87.5" font-family="sans" font-size="10.00">inflate_surface</text>
</g>
<!-- 5&#45;&gt;0 -->
<g id="edge5" class="edge"><title>5&#45;&gt;0</title>
<path fill="none" stroke="grey" stroke-width="2" d="M702.591,-71.8761C688.342,-62.8083 670.654,-51.5523 655.264,-41.7592"/>
<polygon fill="grey" stroke="grey" stroke-width="2" points="656.828,-38.6057 646.512,-36.1898 653.07,-44.5114 656.828,-38.6057"/>
</g>
<!-- 6 -->
<g id="node7" class="node"><title>6</title>
<path fill="none" stroke="#a7d856" stroke-width="2" stroke-dasharray="5,2" d="M175.5,-180C175.5,-180 111.5,-180 111.5,-180 105.5,-180 99.5,-174 99.5,-168 99.5,-168 99.5,-156 99.5,-156 99.5,-150 105.5,-144 111.5,-144 111.5,-144 175.5,-144 175.5,-144 181.5,-144 187.5,-150 187.5,-156 187.5,-156 187.5,-168 187.5,-168 187.5,-174 181.5,-180 175.5,-180"/>
<text text-anchor="middle" x="143.5" y="-159.5" font-family="sans" font-size="10.00">inflate_surface</text>
</g>
<!-- 6&#45;&gt;0 -->
<g id="edge6" class="edge"><title>6&#45;&gt;0</title>
<path fill="none" stroke="grey" stroke-width="2" d="M170.872,-143.832C204.403,-123.582 263.54,-90.3588 318.5,-72 410.414,-41.2969 524.378,-27.4271 582.151,-21.9989"/>
<polygon fill="grey" stroke="grey" stroke-width="2" points="582.624,-25.4705 592.267,-21.0814 581.991,-18.4991 582.624,-25.4705"/>
</g>
<!-- 7 -->
<g id="node8" class="node"><title>7</title>
<path fill="none" stroke="#a7d856" stroke-width="2" stroke-dasharray="5,2" d="M651.5,-108C651.5,-108 587.5,-108 587.5,-108 581.5,-108 575.5,-102 575.5,-96 575.5,-96 575.5,-84 575.5,-84 575.5,-78 581.5,-72 587.5,-72 587.5,-72 651.5,-72 651.5,-72 657.5,-72 663.5,-78 663.5,-84 663.5,-84 663.5,-96 663.5,-96 663.5,-102 657.5,-108 651.5,-108"/>
<text text-anchor="middle" x="619.5" y="-87.5" font-family="sans" font-size="10.00">inflate_surface</text>
</g>
<!-- 7&#45;&gt;0 -->
<g id="edge7" class="edge"><title>7&#45;&gt;0</title>
<path fill="none" stroke="grey" stroke-width="2" d="M619.5,-71.6966C619.5,-63.9827 619.5,-54.7125 619.5,-46.1124"/>
<polygon fill="grey" stroke="grey" stroke-width="2" points="623,-46.1043 619.5,-36.1043 616,-46.1044 623,-46.1043"/>
</g>
<!-- 8 -->
<g id="node9" class="node"><title>8</title>
<path fill="none" stroke="#56a2d8" stroke-width="2" stroke-dasharray="5,2" d="M1106,-180C1106,-180 1039,-180 1039,-180 1033,-180 1027,-174 1027,-168 1027,-168 1027,-156 1027,-156 1027,-150 1033,-144 1039,-144 1039,-144 1106,-144 1106,-144 1112,-144 1118,-150 1118,-156 1118,-156 1118,-168 1118,-168 1118,-174 1112,-180 1106,-180"/>
<text text-anchor="middle" x="1072.5" y="-159.5" font-family="sans" font-size="10.00">create_dtseries</text>
</g>
<!-- 8&#45;&gt;1 -->
<g id="edge8" class="edge"><title>8&#45;&gt;1</title>
<path fill="none" stroke="grey" stroke-width="2" d="M1072.5,-143.697C1072.5,-135.983 1072.5,-126.712 1072.5,-118.112"/>
<polygon fill="grey" stroke="grey" stroke-width="2" points="1076,-118.104 1072.5,-108.104 1069,-118.104 1076,-118.104"/>
</g>
<!-- 9 -->
<g id="node10" class="node"><title>9</title>
<path fill="none" stroke="#56c9d8" stroke-width="2" stroke-dasharray="5,2" d="M1358,-324C1358,-324 1275,-324 1275,-324 1269,-324 1263,-318 1263,-312 1263,-312 1263,-300 1263,-300 1263,-294 1269,-288 1275,-288 1275,-288 1358,-288 1358,-288 1364,-288 1370,-294 1370,-300 1370,-300 1370,-312 1370,-312 1370,-318 1364,-324 1358,-324"/>
<text text-anchor="middle" x="1316.5" y="-303.5" font-family="sans" font-size="10.00">extract_confounds</text>
</g>
<!-- 9&#45;&gt;1 -->
<g id="edge9" class="edge"><title>9&#45;&gt;1</title>
<path fill="none" stroke="grey" stroke-width="2" d="M1319.27,-287.67C1321.39,-268.47 1321.87,-237.402 1307.5,-216 1264.57,-152.075 1177.97,-118.409 1122.73,-102.694"/>
<polygon fill="grey" stroke="grey" stroke-width="2" points="1123.37,-99.2395 1112.8,-99.965 1121.51,-105.989 1123.37,-99.2395"/>
</g>
<!-- 10 -->
<g id="node11" class="node"><title>10</title>
<path fill="none" stroke="#56c1d8" stroke-width="2" stroke-dasharray="5,2" d="M212,-324C212,-324 133,-324 133,-324 127,-324 121,-318 121,-312 121,-312 121,-300 121,-300 121,-294 127,-288 133,-288 133,-288 212,-288 212,-288 218,-288 224,-294 224,-300 224,-300 224,-312 224,-312 224,-318 218,-324 212,-324"/>
<text text-anchor="middle" x="172.5" y="-309" font-family="sans" font-size="10.00">resample_surface</text>
<text text-anchor="middle" x="172.5" y="-298" font-family="sans" font-size="10.00">space: anat</text>
</g>
<!-- 10&#45;&gt;2 -->
<g id="edge10" class="edge"><title>10&#45;&gt;2</title>
<path fill="none" stroke="grey" stroke-width="2" d="M183.839,-287.871C200.141,-263.244 230.331,-217.638 249.365,-188.885"/>
<polygon fill="grey" stroke="grey" stroke-width="2" points="252.52,-190.46 255.121,-180.189 246.683,-186.596 252.52,-190.46"/>
</g>
<!-- 16 -->
<g id="node17" class="node"><title>16</title>
<path fill="none" stroke="#56d8a2" stroke-width="2" stroke-dasharray="5,2" d="M509.5,-252C509.5,-252 403.5,-252 403.5,-252 397.5,-252 391.5,-246 391.5,-240 391.5,-240 391.5,-228 391.5,-228 391.5,-222 397.5,-216 403.5,-216 403.5,-216 509.5,-216 509.5,-216 515.5,-216 521.5,-222 521.5,-228 521.5,-228 521.5,-240 521.5,-240 521.5,-246 515.5,-252 509.5,-252"/>
<text text-anchor="middle" x="456.5" y="-231.5" font-family="sans" font-size="10.00">resample_surface_data</text>
</g>
<!-- 10&#45;&gt;16 -->
<g id="edge38" class="edge"><title>10&#45;&gt;16</title>
<path fill="none" stroke="grey" stroke-width="2" d="M224.006,-291.661C228.902,-290.415 233.794,-289.178 238.5,-288 285.897,-276.135 339.189,-263.172 381.217,-253.036"/>
<polygon fill="grey" stroke="grey" stroke-width="2" points="382.197,-256.4 391.099,-250.655 380.557,-249.595 382.197,-256.4"/>
</g>
<!-- 11 -->
<g id="node12" class="node"><title>11</title>
<path fill="none" stroke="#56c1d8" stroke-width="2" stroke-dasharray="5,2" d="M940,-324C940,-324 861,-324 861,-324 855,-324 849,-318 849,-312 849,-312 849,-300 849,-300 849,-294 855,-288 861,-288 861,-288 940,-288 940,-288 946,-288 952,-294 952,-300 952,-300 952,-312 952,-312 952,-318 946,-324 940,-324"/>
<text text-anchor="middle" x="900.5" y="-309" font-family="sans" font-size="10.00">resample_surface</text>
<text text-anchor="middle" x="900.5" y="-298" font-family="sans" font-size="10.00">space: anat</text>
</g>
<!-- 11&#45;&gt;3 -->
<g id="edge11" class="edge"><title>11&#45;&gt;3</title>
<path fill="none" stroke="grey" stroke-width="2" d="M893.504,-287.871C883.532,-263.457 865.139,-218.426 853.379,-189.635"/>
<polygon fill="grey" stroke="grey" stroke-width="2" points="856.542,-188.123 849.521,-180.189 850.062,-190.77 856.542,-188.123"/>
</g>
<!-- 17 -->
<g id="node18" class="node"><title>17</title>
<path fill="none" stroke="#56d8a2" stroke-width="2" stroke-dasharray="5,2" d="M1077.5,-252C1077.5,-252 971.5,-252 971.5,-252 965.5,-252 959.5,-246 959.5,-240 959.5,-240 959.5,-228 959.5,-228 959.5,-222 965.5,-216 971.5,-216 971.5,-216 1077.5,-216 1077.5,-216 1083.5,-216 1089.5,-222 1089.5,-228 1089.5,-228 1089.5,-240 1089.5,-240 1089.5,-246 1083.5,-252 1077.5,-252"/>
<text text-anchor="middle" x="1024.5" y="-231.5" font-family="sans" font-size="10.00">resample_surface_data</text>
</g>
<!-- 11&#45;&gt;17 -->
<g id="edge42" class="edge"><title>11&#45;&gt;17</title>
<path fill="none" stroke="grey" stroke-width="2" d="M930.834,-287.876C947.197,-278.639 967.583,-267.131 985.154,-257.212"/>
<polygon fill="grey" stroke="grey" stroke-width="2" points="987.062,-260.154 994.05,-252.19 983.621,-254.058 987.062,-260.154"/>
</g>
<!-- 12 -->
<g id="node13" class="node"><title>12</title>
<path fill="none" stroke="#56c1d8" stroke-width="2" stroke-dasharray="5,2" d="M372,-324C372,-324 293,-324 293,-324 287,-324 281,-318 281,-312 281,-312 281,-300 281,-300 281,-294 287,-288 293,-288 293,-288 372,-288 372,-288 378,-288 384,-294 384,-300 384,-300 384,-312 384,-312 384,-318 378,-324 372,-324"/>
<text text-anchor="middle" x="332.5" y="-309" font-family="sans" font-size="10.00">resample_surface</text>
<text text-anchor="middle" x="332.5" y="-298" font-family="sans" font-size="10.00">space: epi</text>
</g>
<!-- 12&#45;&gt;4 -->
<g id="edge12" class="edge"><title>12&#45;&gt;4</title>
<path fill="none" stroke="grey" stroke-width="2" d="M340.354,-287.849C357.414,-250.597 397.955,-162.067 418.347,-117.539"/>
<polygon fill="grey" stroke="grey" stroke-width="2" points="421.627,-118.782 422.609,-108.232 415.263,-115.867 421.627,-118.782"/>
</g>
<!-- 13 -->
<g id="node14" class="node"><title>13</title>
<path fill="none" stroke="#56c1d8" stroke-width="2" stroke-dasharray="5,2" d="M780,-324C780,-324 701,-324 701,-324 695,-324 689,-318 689,-312 689,-312 689,-300 689,-300 689,-294 695,-288 701,-288 701,-288 780,-288 780,-288 786,-288 792,-294 792,-300 792,-300 792,-312 792,-312 792,-318 786,-324 780,-324"/>
<text text-anchor="middle" x="740.5" y="-309" font-family="sans" font-size="10.00">resample_surface</text>
<text text-anchor="middle" x="740.5" y="-298" font-family="sans" font-size="10.00">space: epi</text>
</g>
<!-- 13&#45;&gt;5 -->
<g id="edge13" class="edge"><title>13&#45;&gt;5</title>
<path fill="none" stroke="grey" stroke-width="2" d="M739.618,-287.849C737.716,-250.832 733.21,-163.181 730.908,-118.386"/>
<polygon fill="grey" stroke="grey" stroke-width="2" points="734.395,-118.04 730.386,-108.232 727.404,-118.399 734.395,-118.04"/>
</g>
<!-- 14 -->
<g id="node15" class="node"><title>14</title>
<path fill="none" stroke="#56c1d8" stroke-width="2" stroke-dasharray="5,2" d="M91,-324C91,-324 12,-324 12,-324 6,-324 0,-318 0,-312 0,-312 0,-300 0,-300 0,-294 6,-288 12,-288 12,-288 91,-288 91,-288 97,-288 103,-294 103,-300 103,-300 103,-312 103,-312 103,-318 97,-324 91,-324"/>
<text text-anchor="middle" x="51.5" y="-309" font-family="sans" font-size="10.00">resample_surface</text>
<text text-anchor="middle" x="51.5" y="-298" font-family="sans" font-size="10.00">space: mni</text>
</g>
<!-- 14&#45;&gt;6 -->
<g id="edge14" class="edge"><title>14&#45;&gt;6</title>
<path fill="none" stroke="grey" stroke-width="2" d="M62.5973,-287.871C78.5533,-263.244 108.101,-217.638 126.73,-188.885"/>
<polygon fill="grey" stroke="grey" stroke-width="2" points="129.863,-190.485 132.363,-180.189 123.988,-186.679 129.863,-190.485"/>
</g>
<!-- 15 -->
<g id="node16" class="node"><title>15</title>
<path fill="none" stroke="#56c1d8" stroke-width="2" stroke-dasharray="5,2" d="M659,-324C659,-324 580,-324 580,-324 574,-324 568,-318 568,-312 568,-312 568,-300 568,-300 568,-294 574,-288 580,-288 580,-288 659,-288 659,-288 665,-288 671,-294 671,-300 671,-300 671,-312 671,-312 671,-318 665,-324 659,-324"/>
<text text-anchor="middle" x="619.5" y="-309" font-family="sans" font-size="10.00">resample_surface</text>
<text text-anchor="middle" x="619.5" y="-298" font-family="sans" font-size="10.00">space: mni</text>
</g>
<!-- 15&#45;&gt;7 -->
<g id="edge15" class="edge"><title>15&#45;&gt;7</title>
<path fill="none" stroke="grey" stroke-width="2" d="M619.5,-287.849C619.5,-250.832 619.5,-163.181 619.5,-118.386"/>
<polygon fill="grey" stroke="grey" stroke-width="2" points="623,-118.232 619.5,-108.232 616,-118.232 623,-118.232"/>
</g>
<!-- 16&#45;&gt;8 -->
<g id="edge16" class="edge"><title>16&#45;&gt;8</title>
<path fill="none" stroke="grey" stroke-width="2" d="M521.549,-225.608C643.011,-211.806 902.31,-182.34 1016.52,-169.362"/>
<polygon fill="grey" stroke="grey" stroke-width="2" points="1017.24,-172.802 1026.78,-168.195 1016.45,-165.847 1017.24,-172.802"/>
</g>
<!-- 17&#45;&gt;8 -->
<g id="edge17" class="edge"><title>17&#45;&gt;8</title>
<path fill="none" stroke="grey" stroke-width="2" d="M1036.37,-215.697C1042,-207.474 1048.85,-197.483 1055.07,-188.421"/>
<polygon fill="grey" stroke="grey" stroke-width="2" points="1058,-190.331 1060.77,-180.104 1052.23,-186.372 1058,-190.331"/>
</g>
<!-- 18 -->
<g id="node19" class="node"><title>18</title>
<path fill="none" stroke="#88d856" stroke-width="2" stroke-dasharray="5,2" d="M1103.5,-404C1103.5,-404 1013.5,-404 1013.5,-404 1007.5,-404 1001.5,-398 1001.5,-392 1001.5,-392 1001.5,-380 1001.5,-380 1001.5,-374 1007.5,-368 1013.5,-368 1013.5,-368 1103.5,-368 1103.5,-368 1109.5,-368 1115.5,-374 1115.5,-380 1115.5,-380 1115.5,-392 1115.5,-392 1115.5,-398 1109.5,-404 1103.5,-404"/>
<text text-anchor="middle" x="1058.5" y="-383.5" font-family="sans" font-size="10.00">onestep_resampling</text>
</g>
<!-- 18&#45;&gt;8 -->
<g id="edge18" class="edge"><title>18&#45;&gt;8</title>
<path fill="none" stroke="grey" stroke-width="2" d="M1068.28,-367.928C1074.7,-355.988 1082.75,-339.47 1087.5,-324 1101.65,-277.874 1109.41,-262.999 1098.5,-216 1096.4,-206.959 1092.53,-197.681 1088.41,-189.467"/>
<polygon fill="grey" stroke="grey" stroke-width="2" points="1091.36,-187.55 1083.55,-180.389 1085.19,-190.857 1091.36,-187.55"/>
</g>
<!-- 18&#45;&gt;9 -->
<g id="edge20" class="edge"><title>18&#45;&gt;9</title>
<path fill="none" stroke="grey" stroke-width="2" d="M1114.8,-367.979C1155.65,-355.628 1210.95,-338.91 1253.31,-326.103"/>
<polygon fill="grey" stroke="grey" stroke-width="2" points="1254.41,-329.429 1262.97,-323.185 1252.38,-322.728 1254.41,-329.429"/>
</g>
<!-- 30 -->
<g id="node31" class="node"><title>30</title>
<path fill="none" stroke="#56d87b" stroke-width="2" stroke-dasharray="5,2" d="M499,-324C499,-324 414,-324 414,-324 408,-324 402,-318 402,-312 402,-312 402,-300 402,-300 402,-294 408,-288 414,-288 414,-288 499,-288 499,-288 505,-288 511,-294 511,-300 511,-300 511,-312 511,-312 511,-318 505,-324 499,-324"/>
<text text-anchor="middle" x="456.5" y="-303.5" font-family="sans" font-size="10.00">volume_to_surface</text>
</g>
<!-- 18&#45;&gt;30 -->
<g id="edge63" class="edge"><title>18&#45;&gt;30</title>
<path fill="none" stroke="grey" stroke-width="2" d="M1018.3,-367.972C1009.59,-364.861 1000.34,-361.978 991.5,-360 803.048,-317.85 750.125,-347.894 558.5,-324 546.461,-322.499 533.671,-320.606 521.364,-318.632"/>
<polygon fill="grey" stroke="grey" stroke-width="2" points="521.602,-315.124 511.167,-316.962 520.47,-322.032 521.602,-315.124"/>
</g>
<!-- 32 -->
<g id="node33" class="node"><title>32</title>
<path fill="none" stroke="#56d87b" stroke-width="2" stroke-dasharray="5,2" d="M1067,-324C1067,-324 982,-324 982,-324 976,-324 970,-318 970,-312 970,-312 970,-300 970,-300 970,-294 976,-288 982,-288 982,-288 1067,-288 1067,-288 1073,-288 1079,-294 1079,-300 1079,-300 1079,-312 1079,-312 1079,-318 1073,-324 1067,-324"/>
<text text-anchor="middle" x="1024.5" y="-303.5" font-family="sans" font-size="10.00">volume_to_surface</text>
</g>
<!-- 18&#45;&gt;32 -->
<g id="edge67" class="edge"><title>18&#45;&gt;32</title>
<path fill="none" stroke="grey" stroke-width="2" d="M1050.95,-367.689C1046.6,-357.692 1041.02,-344.906 1036.12,-333.651"/>
<polygon fill="grey" stroke="grey" stroke-width="2" points="1039.23,-332.031 1032.02,-324.262 1032.81,-334.828 1039.23,-332.031"/>
</g>
<!-- 19 -->
<g id="node20" class="node"><title>19</title>
<path fill="none" stroke="#ced856" stroke-width="2" stroke-dasharray="5,2" d="M1286.5,-252C1286.5,-252 1160.5,-252 1160.5,-252 1154.5,-252 1148.5,-246 1148.5,-240 1148.5,-240 1148.5,-228 1148.5,-228 1148.5,-222 1154.5,-216 1160.5,-216 1160.5,-216 1286.5,-216 1286.5,-216 1292.5,-216 1298.5,-222 1298.5,-228 1298.5,-228 1298.5,-240 1298.5,-240 1298.5,-246 1292.5,-252 1286.5,-252"/>
<text text-anchor="middle" x="1223.5" y="-231.5" font-family="sans" font-size="10.00">generate_subcortical_labels</text>
</g>
<!-- 19&#45;&gt;8 -->
<g id="edge19" class="edge"><title>19&#45;&gt;8</title>
<path fill="none" stroke="grey" stroke-width="2" d="M1186.56,-215.876C1166.01,-206.349 1140.25,-194.407 1118.41,-184.283"/>
<polygon fill="grey" stroke="grey" stroke-width="2" points="1119.86,-181.099 1109.32,-180.068 1116.92,-187.45 1119.86,-181.099"/>
</g>
<!-- 20 -->
<g id="node21" class="node"><title>20</title>
<path fill="none" stroke="#56d8b1" stroke-width="2" stroke-dasharray="5,2" d="M1248.5,-404C1248.5,-404 1198.5,-404 1198.5,-404 1192.5,-404 1186.5,-398 1186.5,-392 1186.5,-392 1186.5,-380 1186.5,-380 1186.5,-374 1192.5,-368 1198.5,-368 1198.5,-368 1248.5,-368 1248.5,-368 1254.5,-368 1260.5,-374 1260.5,-380 1260.5,-380 1260.5,-392 1260.5,-392 1260.5,-398 1254.5,-404 1248.5,-404"/>
<text text-anchor="middle" x="1223.5" y="-389" font-family="sans" font-size="10.00">extract_rois</text>
<text text-anchor="middle" x="1223.5" y="-378" font-family="sans" font-size="10.00">space: mni</text>
</g>
<!-- 20&#45;&gt;9 -->
<g id="edge21" class="edge"><title>20&#45;&gt;9</title>
<path fill="none" stroke="grey" stroke-width="2" d="M1244.14,-367.689C1257.02,-356.884 1273.79,-342.822 1287.94,-330.955"/>
<polygon fill="grey" stroke="grey" stroke-width="2" points="1290.51,-333.37 1295.92,-324.262 1286.01,-328.007 1290.51,-333.37"/>
</g>
<!-- 20&#45;&gt;19 -->
<g id="edge46" class="edge"><title>20&#45;&gt;19</title>
<path fill="none" stroke="grey" stroke-width="2" d="M1223.5,-367.793C1223.5,-341.91 1223.5,-292.727 1223.5,-262.026"/>
<polygon fill="grey" stroke="grey" stroke-width="2" points="1227,-262.006 1223.5,-252.006 1220,-262.006 1227,-262.006"/>
</g>
<!-- 21 -->
<g id="node22" class="node"><title>21</title>
<path fill="none" stroke="#d88d56" stroke-width="2" stroke-dasharray="5,2" d="M1331,-788C1331,-788 1286,-788 1286,-788 1280,-788 1274,-782 1274,-776 1274,-776 1274,-764 1274,-764 1274,-758 1280,-752 1286,-752 1286,-752 1331,-752 1331,-752 1337,-752 1343,-758 1343,-764 1343,-764 1343,-776 1343,-776 1343,-782 1337,-788 1331,-788"/>
<text text-anchor="middle" x="1308.5" y="-767.5" font-family="sans" font-size="10.00">mc_tseries</text>
</g>
<!-- 21&#45;&gt;9 -->
<g id="edge22" class="edge"><title>21&#45;&gt;9</title>
<path fill="none" stroke="grey" stroke-width="2" d="M1322.06,-751.657C1341.64,-724.825 1375.5,-670.909 1375.5,-619 1375.5,-619 1375.5,-619 1375.5,-465 1375.5,-415.909 1350.19,-363.351 1332.73,-332.923"/>
<polygon fill="grey" stroke="grey" stroke-width="2" points="1335.69,-331.055 1327.6,-324.219 1329.66,-334.61 1335.69,-331.055"/>
</g>
<!-- 46 -->
<g id="node47" class="node"><title>46</title>
<path fill="none" stroke="#d8b456" stroke-width="2" stroke-dasharray="5,2" d="M1280.5,-716C1280.5,-716 1228.5,-716 1228.5,-716 1222.5,-716 1216.5,-710 1216.5,-704 1216.5,-704 1216.5,-692 1216.5,-692 1216.5,-686 1222.5,-680 1228.5,-680 1228.5,-680 1280.5,-680 1280.5,-680 1286.5,-680 1292.5,-686 1292.5,-692 1292.5,-692 1292.5,-704 1292.5,-704 1292.5,-710 1286.5,-716 1280.5,-716"/>
<text text-anchor="middle" x="1254.5" y="-695.5" font-family="sans" font-size="10.00">apply_topup</text>
</g>
<!-- 21&#45;&gt;46 -->
<g id="edge80" class="edge"><title>21&#45;&gt;46</title>
<path fill="none" stroke="grey" stroke-width="2" d="M1295.15,-751.697C1288.74,-743.389 1280.94,-733.277 1273.89,-724.141"/>
<polygon fill="grey" stroke="grey" stroke-width="2" points="1276.57,-721.884 1267.69,-716.104 1271.03,-726.16 1276.57,-721.884"/>
</g>
<!-- 22 -->
<g id="node23" class="node"><title>22</title>
<path fill="none" stroke="#d89556" stroke-width="2" stroke-dasharray="5,2" d="M457.5,-484C457.5,-484 351.5,-484 351.5,-484 345.5,-484 339.5,-478 339.5,-472 339.5,-472 339.5,-460 339.5,-460 339.5,-454 345.5,-448 351.5,-448 351.5,-448 457.5,-448 457.5,-448 463.5,-448 469.5,-454 469.5,-460 469.5,-460 469.5,-472 469.5,-472 469.5,-478 463.5,-484 457.5,-484"/>
<text text-anchor="middle" x="404.5" y="-463.5" font-family="sans" font-size="10.00">apply_surf_tkr2scanner</text>
</g>
<!-- 22&#45;&gt;10 -->
<g id="edge23" class="edge"><title>22&#45;&gt;10</title>
<path fill="none" stroke="grey" stroke-width="2" d="M339.421,-464.775C248.955,-462.921 92.2455,-453.602 56.5,-412 41.4384,-394.471 44.0069,-379.443 56.5,-360 63.3985,-349.264 87.6043,-337.45 112.132,-327.706"/>
<polygon fill="grey" stroke="grey" stroke-width="2" points="113.448,-330.95 121.513,-324.08 110.924,-324.421 113.448,-330.95"/>
</g>
<!-- 26 -->
<g id="node27" class="node"><title>26</title>
<path fill="none" stroke="#56d89a" stroke-width="2" stroke-dasharray="5,2" d="M465,-404C465,-404 358,-404 358,-404 352,-404 346,-398 346,-392 346,-392 346,-380 346,-380 346,-374 352,-368 358,-368 358,-368 465,-368 465,-368 471,-368 477,-374 477,-380 477,-380 477,-392 477,-392 477,-398 471,-404 465,-404"/>
<text text-anchor="middle" x="411.5" y="-383.5" font-family="sans" font-size="10.00">apply_surf_scanner2epi</text>
</g>
<!-- 22&#45;&gt;26 -->
<g id="edge53" class="edge"><title>22&#45;&gt;26</title>
<path fill="none" stroke="grey" stroke-width="2" d="M406.054,-447.689C406.933,-437.894 408.052,-425.422 409.047,-414.335"/>
<polygon fill="grey" stroke="grey" stroke-width="2" points="412.543,-414.535 409.951,-404.262 405.571,-413.909 412.543,-414.535"/>
</g>
<!-- 28 -->
<g id="node29" class="node"><title>28</title>
<path fill="none" stroke="#d6d856" stroke-width="2" stroke-dasharray="5,2" d="M187.5,-404C187.5,-404 77.5,-404 77.5,-404 71.5,-404 65.5,-398 65.5,-392 65.5,-392 65.5,-380 65.5,-380 65.5,-374 71.5,-368 77.5,-368 77.5,-368 187.5,-368 187.5,-368 193.5,-368 199.5,-374 199.5,-380 199.5,-380 199.5,-392 199.5,-392 199.5,-398 193.5,-404 187.5,-404"/>
<text text-anchor="middle" x="132.5" y="-383.5" font-family="sans" font-size="10.00">apply_surf_scanner2mni</text>
</g>
<!-- 22&#45;&gt;28 -->
<g id="edge57" class="edge"><title>22&#45;&gt;28</title>
<path fill="none" stroke="grey" stroke-width="2" d="M339.365,-448.324C301.107,-438.297 251.892,-424.994 208.5,-412 203.344,-410.456 198.007,-408.807 192.663,-407.119"/>
<polygon fill="grey" stroke="grey" stroke-width="2" points="193.664,-403.765 183.073,-404.055 191.533,-410.433 193.664,-403.765"/>
</g>
<!-- 23 -->
<g id="node24" class="node"><title>23</title>
<path fill="none" stroke="#56d863" stroke-width="2" stroke-dasharray="5,2" d="M315.5,-412C315.5,-412 229.5,-412 229.5,-412 223.5,-412 217.5,-406 217.5,-400 217.5,-400 217.5,-372 217.5,-372 217.5,-366 223.5,-360 229.5,-360 229.5,-360 315.5,-360 315.5,-360 321.5,-360 327.5,-366 327.5,-372 327.5,-372 327.5,-400 327.5,-400 327.5,-406 321.5,-412 315.5,-412"/>
<text text-anchor="middle" x="272.5" y="-400" font-family="sans" font-size="10.00">convert_surfaces</text>
<text text-anchor="middle" x="272.5" y="-389" font-family="sans" font-size="10.00">hemi: lh.sphere</text>
<text text-anchor="middle" x="272.5" y="-378" font-family="sans" font-size="10.00">subject: S001&#45;C001</text>
<text text-anchor="middle" x="272.5" y="-367" font-family="sans" font-size="10.00">surf: reg</text>
</g>
<!-- 23&#45;&gt;10 -->
<g id="edge24" class="edge"><title>23&#45;&gt;10</title>
<path fill="none" stroke="grey" stroke-width="2" d="M240.309,-359.891C228.155,-350.411 214.385,-339.671 202.445,-330.357"/>
<polygon fill="grey" stroke="grey" stroke-width="2" points="204.551,-327.561 194.513,-324.17 200.246,-333.08 204.551,-327.561"/>
</g>
<!-- 23&#45;&gt;12 -->
<g id="edge28" class="edge"><title>23&#45;&gt;12</title>
<path fill="none" stroke="grey" stroke-width="2" d="M291.815,-359.891C298.564,-351.116 306.144,-341.262 312.916,-332.459"/>
<polygon fill="grey" stroke="grey" stroke-width="2" points="315.784,-334.471 319.107,-324.411 310.236,-330.203 315.784,-334.471"/>
</g>
<!-- 23&#45;&gt;14 -->
<g id="edge32" class="edge"><title>23&#45;&gt;14</title>
<path fill="none" stroke="grey" stroke-width="2" d="M217.404,-363.289C214.397,-362.164 211.415,-361.061 208.5,-360 177.168,-348.599 142.027,-336.658 112.947,-327.003"/>
<polygon fill="grey" stroke="grey" stroke-width="2" points="113.925,-323.64 103.332,-323.82 111.725,-330.285 113.925,-323.64"/>
</g>
<!-- 23&#45;&gt;16 -->
<g id="edge36" class="edge"><title>23&#45;&gt;16</title>
<path fill="none" stroke="grey" stroke-width="2" d="M264.408,-359.681C259.292,-338.406 256.193,-308.308 271.5,-288 285.101,-269.955 335.981,-256.182 380.947,-247.205"/>
<polygon fill="grey" stroke="grey" stroke-width="2" points="381.878,-250.59 391.029,-245.25 380.545,-243.717 381.878,-250.59"/>
</g>
<!-- 24 -->
<g id="node25" class="node"><title>24</title>
<path fill="none" stroke="#d89556" stroke-width="2" stroke-dasharray="5,2" d="M815.5,-484C815.5,-484 709.5,-484 709.5,-484 703.5,-484 697.5,-478 697.5,-472 697.5,-472 697.5,-460 697.5,-460 697.5,-454 703.5,-448 709.5,-448 709.5,-448 815.5,-448 815.5,-448 821.5,-448 827.5,-454 827.5,-460 827.5,-460 827.5,-472 827.5,-472 827.5,-478 821.5,-484 815.5,-484"/>
<text text-anchor="middle" x="762.5" y="-463.5" font-family="sans" font-size="10.00">apply_surf_tkr2scanner</text>
</g>
<!-- 24&#45;&gt;11 -->
<g id="edge25" class="edge"><title>24&#45;&gt;11</title>
<path fill="none" stroke="grey" stroke-width="2" d="M776.29,-447.947C784.57,-437.622 795.256,-424.145 804.5,-412 821.837,-389.223 823.395,-381.316 842.5,-360 851.551,-349.901 862.32,-339.652 872.107,-330.893"/>
<polygon fill="grey" stroke="grey" stroke-width="2" points="874.498,-333.452 879.695,-324.22 869.874,-328.196 874.498,-333.452"/>
</g>
<!-- 27 -->
<g id="node28" class="node"><title>27</title>
<path fill="none" stroke="#56d89a" stroke-width="2" stroke-dasharray="5,2" d="M971,-404C971,-404 864,-404 864,-404 858,-404 852,-398 852,-392 852,-392 852,-380 852,-380 852,-374 858,-368 864,-368 864,-368 971,-368 971,-368 977,-368 983,-374 983,-380 983,-380 983,-392 983,-392 983,-398 977,-404 971,-404"/>
<text text-anchor="middle" x="917.5" y="-383.5" font-family="sans" font-size="10.00">apply_surf_scanner2epi</text>
</g>
<!-- 24&#45;&gt;27 -->
<g id="edge55" class="edge"><title>24&#45;&gt;27</title>
<path fill="none" stroke="grey" stroke-width="2" d="M796.515,-447.883C819.431,-436.351 849.846,-421.045 874.448,-408.665"/>
<polygon fill="grey" stroke="grey" stroke-width="2" points="876.205,-411.699 883.564,-404.078 873.058,-405.446 876.205,-411.699"/>
</g>
<!-- 29 -->
<g id="node30" class="node"><title>29</title>
<path fill="none" stroke="#d6d856" stroke-width="2" stroke-dasharray="5,2" d="M655.5,-404C655.5,-404 545.5,-404 545.5,-404 539.5,-404 533.5,-398 533.5,-392 533.5,-392 533.5,-380 533.5,-380 533.5,-374 539.5,-368 545.5,-368 545.5,-368 655.5,-368 655.5,-368 661.5,-368 667.5,-374 667.5,-380 667.5,-380 667.5,-392 667.5,-392 667.5,-398 661.5,-404 655.5,-404"/>
<text text-anchor="middle" x="600.5" y="-383.5" font-family="sans" font-size="10.00">apply_surf_scanner2mni</text>
</g>
<!-- 24&#45;&gt;29 -->
<g id="edge60" class="edge"><title>24&#45;&gt;29</title>
<path fill="none" stroke="grey" stroke-width="2" d="M726.948,-447.883C702.892,-436.3 670.929,-420.91 645.157,-408.502"/>
<polygon fill="grey" stroke="grey" stroke-width="2" points="646.497,-405.262 635.969,-404.078 643.46,-411.569 646.497,-405.262"/>
</g>
<!-- 25 -->
<g id="node26" class="node"><title>25</title>
<path fill="none" stroke="#56d863" stroke-width="2" stroke-dasharray="5,2" d="M783.5,-412C783.5,-412 697.5,-412 697.5,-412 691.5,-412 685.5,-406 685.5,-400 685.5,-400 685.5,-372 685.5,-372 685.5,-366 691.5,-360 697.5,-360 697.5,-360 783.5,-360 783.5,-360 789.5,-360 795.5,-366 795.5,-372 795.5,-372 795.5,-400 795.5,-400 795.5,-406 789.5,-412 783.5,-412"/>
<text text-anchor="middle" x="740.5" y="-400" font-family="sans" font-size="10.00">convert_surfaces</text>
<text text-anchor="middle" x="740.5" y="-389" font-family="sans" font-size="10.00">hemi: rh.sphere</text>
<text text-anchor="middle" x="740.5" y="-378" font-family="sans" font-size="10.00">subject: S001&#45;C001</text>
<text text-anchor="middle" x="740.5" y="-367" font-family="sans" font-size="10.00">surf: reg</text>
</g>
<!-- 25&#45;&gt;11 -->
<g id="edge26" class="edge"><title>25&#45;&gt;11</title>
<path fill="none" stroke="grey" stroke-width="2" d="M792.006,-359.891C812.668,-349.818 836.248,-338.323 856.135,-328.628"/>
<polygon fill="grey" stroke="grey" stroke-width="2" points="857.824,-331.698 865.279,-324.17 854.757,-325.406 857.824,-331.698"/>
</g>
<!-- 25&#45;&gt;13 -->
<g id="edge30" class="edge"><title>25&#45;&gt;13</title>
<path fill="none" stroke="grey" stroke-width="2" d="M740.5,-359.891C740.5,-351.84 740.5,-342.88 740.5,-334.658"/>
<polygon fill="grey" stroke="grey" stroke-width="2" points="744,-334.411 740.5,-324.411 737,-334.411 744,-334.411"/>
</g>
<!-- 25&#45;&gt;15 -->
<g id="edge34" class="edge"><title>25&#45;&gt;15</title>
<path fill="none" stroke="grey" stroke-width="2" d="M701.549,-359.891C686.559,-350.228 669.54,-339.257 654.902,-329.821"/>
<polygon fill="grey" stroke="grey" stroke-width="2" points="656.437,-326.647 646.136,-324.17 652.645,-332.53 656.437,-326.647"/>
</g>
<!-- 25&#45;&gt;17 -->
<g id="edge40" class="edge"><title>25&#45;&gt;17</title>
<path fill="none" stroke="grey" stroke-width="2" d="M765.508,-359.892C793.369,-332.011 835.107,-290.557 839.5,-288 873.008,-268.497 914.152,-255.785 949.123,-247.715"/>
<polygon fill="grey" stroke="grey" stroke-width="2" points="950.282,-251.043 959.286,-245.458 948.765,-244.209 950.282,-251.043"/>
</g>
<!-- 26&#45;&gt;12 -->
<g id="edge27" class="edge"><title>26&#45;&gt;12</title>
<path fill="none" stroke="grey" stroke-width="2" d="M393.967,-367.689C383.228,-357.086 369.312,-343.346 357.438,-331.622"/>
<polygon fill="grey" stroke="grey" stroke-width="2" points="359.559,-328.798 349.984,-324.262 354.641,-333.779 359.559,-328.798"/>
</g>
<!-- 26&#45;&gt;30 -->
<g id="edge64" class="edge"><title>26&#45;&gt;30</title>
<path fill="none" stroke="grey" stroke-width="2" d="M421.487,-367.689C427.371,-357.49 434.93,-344.389 441.517,-332.971"/>
<polygon fill="grey" stroke="grey" stroke-width="2" points="444.575,-334.673 446.541,-324.262 438.512,-331.175 444.575,-334.673"/>
</g>
<!-- 27&#45;&gt;13 -->
<g id="edge29" class="edge"><title>27&#45;&gt;13</title>
<path fill="none" stroke="grey" stroke-width="2" d="M878.657,-367.883C852.142,-356.198 816.836,-340.64 788.553,-328.176"/>
<polygon fill="grey" stroke="grey" stroke-width="2" points="789.815,-324.907 779.253,-324.078 786.992,-331.313 789.815,-324.907"/>
</g>
<!-- 27&#45;&gt;32 -->
<g id="edge68" class="edge"><title>27&#45;&gt;32</title>
<path fill="none" stroke="grey" stroke-width="2" d="M940.982,-367.883C956.174,-356.808 976.14,-342.253 992.742,-330.151"/>
<polygon fill="grey" stroke="grey" stroke-width="2" points="995.054,-332.797 1001.07,-324.078 990.931,-327.14 995.054,-332.797"/>
</g>
<!-- 28&#45;&gt;14 -->
<g id="edge31" class="edge"><title>28&#45;&gt;14</title>
<path fill="none" stroke="grey" stroke-width="2" d="M114.523,-367.689C103.407,-356.985 88.9722,-343.084 76.7221,-331.288"/>
<polygon fill="grey" stroke="grey" stroke-width="2" points="79.0573,-328.678 69.4263,-324.262 74.2017,-333.72 79.0573,-328.678"/>
</g>
<!-- 29&#45;&gt;15 -->
<g id="edge33" class="edge"><title>29&#45;&gt;15</title>
<path fill="none" stroke="grey" stroke-width="2" d="M604.717,-367.689C607.127,-357.793 610.204,-345.164 612.925,-333.993"/>
<polygon fill="grey" stroke="grey" stroke-width="2" points="616.329,-334.807 615.295,-324.262 609.528,-333.15 616.329,-334.807"/>
</g>
<!-- 30&#45;&gt;16 -->
<g id="edge35" class="edge"><title>30&#45;&gt;16</title>
<path fill="none" stroke="grey" stroke-width="2" d="M456.5,-287.697C456.5,-279.983 456.5,-270.712 456.5,-262.112"/>
<polygon fill="grey" stroke="grey" stroke-width="2" points="460,-262.104 456.5,-252.104 453,-262.104 460,-262.104"/>
</g>
<!-- 31 -->
<g id="node32" class="node"><title>31</title>
<path fill="none" stroke="#afd856" stroke-width="2" stroke-dasharray="5,2" d="M473,-556C473,-556 368,-556 368,-556 362,-556 356,-550 356,-544 356,-544 356,-532 356,-532 356,-526 362,-520 368,-520 368,-520 473,-520 473,-520 479,-520 485,-526 485,-532 485,-532 485,-544 485,-544 485,-550 479,-556 473,-556"/>
<text text-anchor="middle" x="420.5" y="-535.5" font-family="sans" font-size="10.00">generate_midthickness</text>
</g>
<!-- 31&#45;&gt;16 -->
<g id="edge37" class="edge"><title>31&#45;&gt;16</title>
<path fill="none" stroke="grey" stroke-width="2" d="M445.082,-519.901C456.805,-510.557 470.076,-498.034 478.5,-484 516.282,-421.061 510.317,-396.832 519.5,-324 521.502,-308.126 526.253,-302.505 519.5,-288 514.074,-276.344 504.682,-266.336 494.782,-258.256"/>
<polygon fill="grey" stroke="grey" stroke-width="2" points="496.881,-255.455 486.8,-252.195 492.648,-261.03 496.881,-255.455"/>
</g>
<!-- 31&#45;&gt;22 -->
<g id="edge49" class="edge"><title>31&#45;&gt;22</title>
<path fill="none" stroke="grey" stroke-width="2" d="M416.545,-519.697C414.782,-511.983 412.663,-502.712 410.697,-494.112"/>
<polygon fill="grey" stroke="grey" stroke-width="2" points="414.05,-493.073 408.41,-484.104 407.226,-494.633 414.05,-493.073"/>
</g>
<!-- 32&#45;&gt;17 -->
<g id="edge39" class="edge"><title>32&#45;&gt;17</title>
<path fill="none" stroke="grey" stroke-width="2" d="M1024.5,-287.697C1024.5,-279.983 1024.5,-270.712 1024.5,-262.112"/>
<polygon fill="grey" stroke="grey" stroke-width="2" points="1028,-262.104 1024.5,-252.104 1021,-262.104 1028,-262.104"/>
</g>
<!-- 33 -->
<g id="node34" class="node"><title>33</title>
<path fill="none" stroke="#afd856" stroke-width="2" stroke-dasharray="5,2" d="M1156,-556C1156,-556 1051,-556 1051,-556 1045,-556 1039,-550 1039,-544 1039,-544 1039,-532 1039,-532 1039,-526 1045,-520 1051,-520 1051,-520 1156,-520 1156,-520 1162,-520 1168,-526 1168,-532 1168,-532 1168,-544 1168,-544 1168,-550 1162,-556 1156,-556"/>
<text text-anchor="middle" x="1103.5" y="-535.5" font-family="sans" font-size="10.00">generate_midthickness</text>
</g>
<!-- 33&#45;&gt;17 -->
<g id="edge41" class="edge"><title>33&#45;&gt;17</title>
<path fill="none" stroke="grey" stroke-width="2" d="M1109.48,-519.923C1119.77,-488.068 1138.43,-417.598 1124.5,-360 1116.04,-325.031 1109.93,-316.132 1087.5,-288 1078.84,-277.135 1067.67,-266.878 1057.15,-258.335"/>
<polygon fill="grey" stroke="grey" stroke-width="2" points="1059.3,-255.579 1049.28,-252.155 1054.98,-261.084 1059.3,-255.579"/>
</g>
<!-- 33&#45;&gt;24 -->
<g id="edge51" class="edge"><title>33&#45;&gt;24</title>
<path fill="none" stroke="grey" stroke-width="2" d="M1038.96,-523.751C981.62,-511.981 897.79,-494.772 837.489,-482.394"/>
<polygon fill="grey" stroke="grey" stroke-width="2" points="838.146,-478.956 827.646,-480.373 836.738,-485.813 838.146,-478.956"/>
</g>
<!-- 34 -->
<g id="node35" class="node"><title>34</title>
<path fill="none" stroke="#d8bc56" stroke-width="2" stroke-dasharray="5,2" d="M1091.5,-788C1091.5,-788 1005.5,-788 1005.5,-788 999.5,-788 993.5,-782 993.5,-776 993.5,-776 993.5,-764 993.5,-764 993.5,-758 999.5,-752 1005.5,-752 1005.5,-752 1091.5,-752 1091.5,-752 1097.5,-752 1103.5,-758 1103.5,-764 1103.5,-764 1103.5,-776 1103.5,-776 1103.5,-782 1097.5,-788 1091.5,-788"/>
<text text-anchor="middle" x="1048.5" y="-773" font-family="sans" font-size="10.00">run_topup</text>
<text text-anchor="middle" x="1048.5" y="-762" font-family="sans" font-size="10.00">subject: S001&#45;C001</text>
</g>
<!-- 34&#45;&gt;18 -->
<g id="edge43" class="edge"><title>34&#45;&gt;18</title>
<path fill="none" stroke="grey" stroke-width="2" d="M1029.16,-751.851C1005.77,-729.672 967.638,-688.563 952.5,-644 945.067,-622.117 947.038,-614.456 952.5,-592 969.464,-522.259 1014.59,-449.741 1040.16,-412.482"/>
<polygon fill="grey" stroke="grey" stroke-width="2" points="1043.07,-414.428 1045.91,-404.22 1037.32,-410.43 1043.07,-414.428"/>
</g>
<!-- 34&#45;&gt;46 -->
<g id="edge81" class="edge"><title>34&#45;&gt;46</title>
<path fill="none" stroke="grey" stroke-width="2" d="M1098.63,-751.966C1131.55,-740.78 1174.35,-726.235 1206.77,-715.218"/>
<polygon fill="grey" stroke="grey" stroke-width="2" points="1208.14,-718.451 1216.48,-711.92 1205.89,-711.823 1208.14,-718.451"/>
</g>
<!-- 35 -->
<g id="node36" class="node"><title>35</title>
<path fill="none" stroke="#56d873" stroke-width="2" stroke-dasharray="5,2" d="M1297.5,-636C1297.5,-636 1267.5,-636 1267.5,-636 1261.5,-636 1255.5,-630 1255.5,-624 1255.5,-624 1255.5,-612 1255.5,-612 1255.5,-606 1261.5,-600 1267.5,-600 1267.5,-600 1297.5,-600 1297.5,-600 1303.5,-600 1309.5,-606 1309.5,-612 1309.5,-612 1309.5,-624 1309.5,-624 1309.5,-630 1303.5,-636 1297.5,-636"/>
<text text-anchor="middle" x="1282.5" y="-615.5" font-family="sans" font-size="10.00">bbr</text>
</g>
<!-- 35&#45;&gt;18 -->
<g id="edge44" class="edge"><title>35&#45;&gt;18</title>
<path fill="none" stroke="grey" stroke-width="2" d="M1287.56,-599.914C1296.27,-566.663 1309.95,-492.615 1274.5,-448 1264.94,-435.971 1185.17,-415.61 1125.34,-401.75"/>
<polygon fill="grey" stroke="grey" stroke-width="2" points="1126.07,-398.328 1115.54,-399.498 1124.5,-405.15 1126.07,-398.328"/>
</g>
<!-- 48 -->
<g id="node49" class="node"><title>48</title>
<path fill="none" stroke="#d8cb56" stroke-width="2" stroke-dasharray="5,2" d="M1250,-556C1250,-556 1201,-556 1201,-556 1195,-556 1189,-550 1189,-544 1189,-544 1189,-532 1189,-532 1189,-526 1195,-520 1201,-520 1201,-520 1250,-520 1250,-520 1256,-520 1262,-526 1262,-532 1262,-532 1262,-544 1262,-544 1262,-550 1256,-556 1250,-556"/>
<text text-anchor="middle" x="1225.5" y="-535.5" font-family="sans" font-size="10.00">inverse_bbr</text>
</g>
<!-- 35&#45;&gt;48 -->
<g id="edge83" class="edge"><title>35&#45;&gt;48</title>
<path fill="none" stroke="grey" stroke-width="2" d="M1269.85,-599.689C1262.32,-589.389 1252.63,-576.129 1244.23,-564.632"/>
<polygon fill="grey" stroke="grey" stroke-width="2" points="1246.84,-562.271 1238.11,-556.262 1241.19,-566.401 1246.84,-562.271"/>
</g>
<!-- 36 -->
<g id="node37" class="node"><title>36</title>
<path fill="none" stroke="#56b1d8" stroke-width="2" stroke-dasharray="5,2" d="M684.5,-556C684.5,-556 654.5,-556 654.5,-556 648.5,-556 642.5,-550 642.5,-544 642.5,-544 642.5,-532 642.5,-532 642.5,-526 648.5,-520 654.5,-520 654.5,-520 684.5,-520 684.5,-520 690.5,-520 696.5,-526 696.5,-532 696.5,-532 696.5,-544 696.5,-544 696.5,-550 690.5,-556 684.5,-556"/>
<text text-anchor="middle" x="669.5" y="-535.5" font-family="sans" font-size="10.00">fnirt</text>
</g>
<!-- 36&#45;&gt;18 -->
<g id="edge45" class="edge"><title>36&#45;&gt;18</title>
<path fill="none" stroke="grey" stroke-width="2" d="M696.785,-532.27C731.191,-525.452 791.303,-510.655 836.5,-484 856.539,-472.182 854.409,-459.73 874.5,-448 921.485,-420.569 939.991,-429.517 991.5,-412 995.713,-410.567 1000.06,-409.045 1004.42,-407.488"/>
<polygon fill="grey" stroke="grey" stroke-width="2" points="1005.73,-410.736 1013.94,-404.041 1003.35,-404.154 1005.73,-410.736"/>
</g>
<!-- 36&#45;&gt;28 -->
<g id="edge59" class="edge"><title>36&#45;&gt;28</title>
<path fill="none" stroke="grey" stroke-width="2" d="M642.044,-524.445C618.722,-513.756 584.375,-497.959 554.5,-484 520.639,-468.178 514.342,-458.597 478.5,-448 362.406,-413.676 326.506,-439.03 208.5,-412 202.369,-410.596 196.029,-408.906 189.747,-407.076"/>
<polygon fill="grey" stroke="grey" stroke-width="2" points="190.544,-403.66 179.958,-404.105 188.511,-410.358 190.544,-403.66"/>
</g>
<!-- 36&#45;&gt;29 -->
<g id="edge62" class="edge"><title>36&#45;&gt;29</title>
<path fill="none" stroke="grey" stroke-width="2" d="M667.975,-519.844C665.809,-501.344 660.771,-471.399 649.5,-448 643.205,-434.932 633.637,-422.153 624.62,-411.695"/>
<polygon fill="grey" stroke="grey" stroke-width="2" points="627.174,-409.3 617.897,-404.184 621.959,-413.969 627.174,-409.3"/>
</g>
<!-- 37 -->
<g id="node38" class="node"><title>37</title>
<path fill="none" stroke="#567bd8" stroke-width="2" stroke-dasharray="5,2" d="M1254,-484C1254,-484 1191,-484 1191,-484 1185,-484 1179,-478 1179,-472 1179,-472 1179,-460 1179,-460 1179,-454 1185,-448 1191,-448 1191,-448 1254,-448 1254,-448 1260,-448 1266,-454 1266,-460 1266,-460 1266,-472 1266,-472 1266,-478 1260,-484 1254,-484"/>
<text text-anchor="middle" x="1222.5" y="-463.5" font-family="sans" font-size="10.00">transform_rois</text>
</g>
<!-- 36&#45;&gt;37 -->
<g id="edge73" class="edge"><title>36&#45;&gt;37</title>
<path fill="none" stroke="grey" stroke-width="2" d="M696.547,-533.576C782.849,-522.652 1052.78,-488.484 1168.71,-473.808"/>
<polygon fill="grey" stroke="grey" stroke-width="2" points="1169.3,-477.262 1178.78,-472.534 1168.42,-470.318 1169.3,-477.262"/>
</g>
<!-- 41 -->
<g id="node42" class="node"><title>41</title>
<path fill="none" stroke="#d86e56" stroke-width="2" stroke-dasharray="5,2" d="M629,-484C629,-484 576,-484 576,-484 570,-484 564,-478 564,-472 564,-472 564,-460 564,-460 564,-454 570,-448 576,-448 576,-448 629,-448 629,-448 635,-448 641,-454 641,-460 641,-460 641,-472 641,-472 641,-478 635,-484 629,-484"/>
<text text-anchor="middle" x="602.5" y="-463.5" font-family="sans" font-size="10.00">inverse_fnirt</text>
</g>
<!-- 36&#45;&gt;41 -->
<g id="edge79" class="edge"><title>36&#45;&gt;41</title>
<path fill="none" stroke="grey" stroke-width="2" d="M652.938,-519.697C644.825,-511.22 634.912,-500.864 626.029,-491.583"/>
<polygon fill="grey" stroke="grey" stroke-width="2" points="628.314,-488.908 618.871,-484.104 623.257,-493.749 628.314,-488.908"/>
</g>
<!-- 37&#45;&gt;20 -->
<g id="edge47" class="edge"><title>37&#45;&gt;20</title>
<path fill="none" stroke="grey" stroke-width="2" d="M1222.72,-447.689C1222.85,-437.894 1223.01,-425.422 1223.15,-414.335"/>
<polygon fill="grey" stroke="grey" stroke-width="2" points="1226.65,-414.306 1223.28,-404.262 1219.65,-414.217 1226.65,-414.306"/>
</g>
<!-- 38 -->
<g id="node39" class="node"><title>38</title>
<path fill="none" stroke="#bed856" stroke-width="2" stroke-dasharray="5,2" d="M1361,-860C1361,-860 1256,-860 1256,-860 1250,-860 1244,-854 1244,-848 1244,-848 1244,-836 1244,-836 1244,-830 1250,-824 1256,-824 1256,-824 1361,-824 1361,-824 1367,-824 1373,-830 1373,-836 1373,-836 1373,-848 1373,-848 1373,-854 1367,-860 1361,-860"/>
<text text-anchor="middle" x="1308.5" y="-839.5" font-family="sans" font-size="10.00">apply_gradient_unwarp</text>
</g>
<!-- 38&#45;&gt;21 -->
<g id="edge48" class="edge"><title>38&#45;&gt;21</title>
<path fill="none" stroke="grey" stroke-width="2" d="M1308.5,-823.697C1308.5,-815.983 1308.5,-806.712 1308.5,-798.112"/>
<polygon fill="grey" stroke="grey" stroke-width="2" points="1312,-798.104 1308.5,-788.104 1305,-798.104 1312,-798.104"/>
</g>
<!-- 39 -->
<g id="node40" class="node"><title>39</title>
<path fill="none" stroke="#d8a456" stroke-width="2" stroke-dasharray="5,2" d="M607.5,-556C607.5,-556 521.5,-556 521.5,-556 515.5,-556 509.5,-550 509.5,-544 509.5,-544 509.5,-532 509.5,-532 509.5,-526 515.5,-520 521.5,-520 521.5,-520 607.5,-520 607.5,-520 613.5,-520 619.5,-526 619.5,-532 619.5,-532 619.5,-544 619.5,-544 619.5,-550 613.5,-556 607.5,-556"/>
<text text-anchor="middle" x="564.5" y="-541" font-family="sans" font-size="10.00">get_tkr2scanner</text>
<text text-anchor="middle" x="564.5" y="-530" font-family="sans" font-size="10.00">subject: S001&#45;C001</text>
</g>
<!-- 39&#45;&gt;22 -->
<g id="edge50" class="edge"><title>39&#45;&gt;22</title>
<path fill="none" stroke="grey" stroke-width="2" d="M525.36,-519.876C503.487,-510.307 476.043,-498.3 452.838,-488.148"/>
<polygon fill="grey" stroke="grey" stroke-width="2" points="454.078,-484.87 443.513,-484.068 451.272,-491.283 454.078,-484.87"/>
</g>
<!-- 39&#45;&gt;24 -->
<g id="edge52" class="edge"><title>39&#45;&gt;24</title>
<path fill="none" stroke="grey" stroke-width="2" d="M612.683,-519.966C640.348,-510.185 675.277,-497.836 704.448,-487.524"/>
<polygon fill="grey" stroke="grey" stroke-width="2" points="705.839,-490.744 714.101,-484.111 703.506,-484.144 705.839,-490.744"/>
</g>
<!-- 40 -->
<g id="node41" class="node"><title>40</title>
<path fill="none" stroke="#569ad8" stroke-width="2" stroke-dasharray="5,2" d="M967.5,-484C967.5,-484 895.5,-484 895.5,-484 889.5,-484 883.5,-478 883.5,-472 883.5,-472 883.5,-460 883.5,-460 883.5,-454 889.5,-448 895.5,-448 895.5,-448 967.5,-448 967.5,-448 973.5,-448 979.5,-454 979.5,-460 979.5,-460 979.5,-472 979.5,-472 979.5,-478 973.5,-484 967.5,-484"/>
<text text-anchor="middle" x="931.5" y="-463.5" font-family="sans" font-size="10.00">get_scanner2epi</text>
</g>
<!-- 40&#45;&gt;26 -->
<g id="edge54" class="edge"><title>40&#45;&gt;26</title>
<path fill="none" stroke="grey" stroke-width="2" d="M883.266,-455.769C868.309,-453.068 851.751,-450.242 836.5,-448 698.398,-427.696 662.161,-435.107 524.5,-412 512.304,-409.953 499.441,-407.445 486.937,-404.816"/>
<polygon fill="grey" stroke="grey" stroke-width="2" points="487.516,-401.361 477.005,-402.689 486.05,-408.206 487.516,-401.361"/>
</g>
<!-- 40&#45;&gt;27 -->
<g id="edge56" class="edge"><title>40&#45;&gt;27</title>
<path fill="none" stroke="grey" stroke-width="2" d="M928.393,-447.689C926.635,-437.894 924.396,-425.422 922.406,-414.335"/>
<polygon fill="grey" stroke="grey" stroke-width="2" points="925.81,-413.487 920.598,-404.262 918.92,-414.723 925.81,-413.487"/>
</g>
<!-- 41&#45;&gt;28 -->
<g id="edge58" class="edge"><title>41&#45;&gt;28</title>
<path fill="none" stroke="grey" stroke-width="2" d="M563.959,-451.628C559.13,-450.253 554.228,-448.997 549.5,-448 400.38,-416.561 357.502,-443.991 208.5,-412 202.022,-410.609 195.319,-408.868 188.7,-406.957"/>
<polygon fill="grey" stroke="grey" stroke-width="2" points="189.684,-403.598 179.099,-404.054 187.658,-410.298 189.684,-403.598"/>
</g>
<!-- 41&#45;&gt;29 -->
<g id="edge61" class="edge"><title>41&#45;&gt;29</title>
<path fill="none" stroke="grey" stroke-width="2" d="M602.056,-447.689C601.805,-437.894 601.485,-425.422 601.201,-414.335"/>
<polygon fill="grey" stroke="grey" stroke-width="2" points="604.698,-414.169 600.943,-404.262 597.7,-414.349 604.698,-414.169"/>
</g>
<!-- 42 -->
<g id="node43" class="node"><title>42</title>
<path fill="none" stroke="#56d863" stroke-width="2" stroke-dasharray="5,2" d="M580.5,-644C580.5,-644 494.5,-644 494.5,-644 488.5,-644 482.5,-638 482.5,-632 482.5,-632 482.5,-604 482.5,-604 482.5,-598 488.5,-592 494.5,-592 494.5,-592 580.5,-592 580.5,-592 586.5,-592 592.5,-598 592.5,-604 592.5,-604 592.5,-632 592.5,-632 592.5,-638 586.5,-644 580.5,-644"/>
<text text-anchor="middle" x="537.5" y="-632" font-family="sans" font-size="10.00">convert_surfaces</text>
<text text-anchor="middle" x="537.5" y="-621" font-family="sans" font-size="10.00">hemi: lh</text>
<text text-anchor="middle" x="537.5" y="-610" font-family="sans" font-size="10.00">subject: S001&#45;C001</text>
<text text-anchor="middle" x="537.5" y="-599" font-family="sans" font-size="10.00">surf: white</text>
</g>
<!-- 42&#45;&gt;31 -->
<g id="edge65" class="edge"><title>42&#45;&gt;31</title>
<path fill="none" stroke="grey" stroke-width="2" d="M499.836,-591.891C485.342,-582.228 468.885,-571.257 454.732,-561.821"/>
<polygon fill="grey" stroke="grey" stroke-width="2" points="456.517,-558.805 446.255,-556.17 452.634,-564.629 456.517,-558.805"/>
</g>
<!-- 43 -->
<g id="node44" class="node"><title>43</title>
<path fill="none" stroke="#56d863" stroke-width="2" stroke-dasharray="5,2" d="M452.5,-644C452.5,-644 366.5,-644 366.5,-644 360.5,-644 354.5,-638 354.5,-632 354.5,-632 354.5,-604 354.5,-604 354.5,-598 360.5,-592 366.5,-592 366.5,-592 452.5,-592 452.5,-592 458.5,-592 464.5,-598 464.5,-604 464.5,-604 464.5,-632 464.5,-632 464.5,-638 458.5,-644 452.5,-644"/>
<text text-anchor="middle" x="409.5" y="-632" font-family="sans" font-size="10.00">convert_surfaces</text>
<text text-anchor="middle" x="409.5" y="-621" font-family="sans" font-size="10.00">hemi: lh</text>
<text text-anchor="middle" x="409.5" y="-610" font-family="sans" font-size="10.00">subject: S001&#45;C001</text>
<text text-anchor="middle" x="409.5" y="-599" font-family="sans" font-size="10.00">surf: pial</text>
</g>
<!-- 43&#45;&gt;31 -->
<g id="edge66" class="edge"><title>43&#45;&gt;31</title>
<path fill="none" stroke="grey" stroke-width="2" d="M413.041,-591.891C414.189,-583.749 415.468,-574.679 416.639,-566.381"/>
<polygon fill="grey" stroke="grey" stroke-width="2" points="420.114,-566.801 418.045,-556.411 413.182,-565.824 420.114,-566.801"/>
</g>
<!-- 44 -->
<g id="node45" class="node"><title>44</title>
<path fill="none" stroke="#56d863" stroke-width="2" stroke-dasharray="5,2" d="M1059.5,-644C1059.5,-644 973.5,-644 973.5,-644 967.5,-644 961.5,-638 961.5,-632 961.5,-632 961.5,-604 961.5,-604 961.5,-598 967.5,-592 973.5,-592 973.5,-592 1059.5,-592 1059.5,-592 1065.5,-592 1071.5,-598 1071.5,-604 1071.5,-604 1071.5,-632 1071.5,-632 1071.5,-638 1065.5,-644 1059.5,-644"/>
<text text-anchor="middle" x="1016.5" y="-632" font-family="sans" font-size="10.00">convert_surfaces</text>
<text text-anchor="middle" x="1016.5" y="-621" font-family="sans" font-size="10.00">hemi: rh</text>
<text text-anchor="middle" x="1016.5" y="-610" font-family="sans" font-size="10.00">subject: S001&#45;C001</text>
<text text-anchor="middle" x="1016.5" y="-599" font-family="sans" font-size="10.00">surf: white</text>
</g>
<!-- 44&#45;&gt;33 -->
<g id="edge69" class="edge"><title>44&#45;&gt;33</title>
<path fill="none" stroke="grey" stroke-width="2" d="M1044.51,-591.891C1054.88,-582.593 1066.6,-572.083 1076.85,-562.896"/>
<polygon fill="grey" stroke="grey" stroke-width="2" points="1079.24,-565.452 1084.35,-556.17 1074.57,-560.24 1079.24,-565.452"/>
</g>
<!-- 45 -->
<g id="node46" class="node"><title>45</title>
<path fill="none" stroke="#56d863" stroke-width="2" stroke-dasharray="5,2" d="M1187.5,-644C1187.5,-644 1101.5,-644 1101.5,-644 1095.5,-644 1089.5,-638 1089.5,-632 1089.5,-632 1089.5,-604 1089.5,-604 1089.5,-598 1095.5,-592 1101.5,-592 1101.5,-592 1187.5,-592 1187.5,-592 1193.5,-592 1199.5,-598 1199.5,-604 1199.5,-604 1199.5,-632 1199.5,-632 1199.5,-638 1193.5,-644 1187.5,-644"/>
<text text-anchor="middle" x="1144.5" y="-632" font-family="sans" font-size="10.00">convert_surfaces</text>
<text text-anchor="middle" x="1144.5" y="-621" font-family="sans" font-size="10.00">hemi: rh</text>
<text text-anchor="middle" x="1144.5" y="-610" font-family="sans" font-size="10.00">subject: S001&#45;C001</text>
<text text-anchor="middle" x="1144.5" y="-599" font-family="sans" font-size="10.00">surf: pial</text>
</g>
<!-- 45&#45;&gt;33 -->
<g id="edge70" class="edge"><title>45&#45;&gt;33</title>
<path fill="none" stroke="grey" stroke-width="2" d="M1131.3,-591.891C1126.83,-583.388 1121.83,-573.871 1117.31,-565.279"/>
<polygon fill="grey" stroke="grey" stroke-width="2" points="1120.4,-563.634 1112.65,-556.411 1114.21,-566.891 1120.4,-563.634"/>
</g>
<!-- 46&#45;&gt;35 -->
<g id="edge71" class="edge"><title>46&#45;&gt;35</title>
<path fill="none" stroke="grey" stroke-width="2" d="M1260.71,-679.689C1264.27,-669.793 1268.8,-657.164 1272.81,-645.993"/>
<polygon fill="grey" stroke="grey" stroke-width="2" points="1276.22,-646.857 1276.3,-636.262 1269.63,-644.492 1276.22,-646.857"/>
</g>
<!-- 46&#45;&gt;37 -->
<g id="edge75" class="edge"><title>46&#45;&gt;37</title>
<path fill="none" stroke="grey" stroke-width="2" d="M1285.27,-679.907C1298.04,-671.021 1311.5,-658.883 1318.5,-644 1328.33,-623.086 1325.2,-614.119 1318.5,-592 1306.26,-551.59 1273.9,-514.482 1250.12,-491.376"/>
<polygon fill="grey" stroke="grey" stroke-width="2" points="1252.4,-488.717 1242.74,-484.379 1247.59,-493.798 1252.4,-488.717"/>
</g>
<!-- 46&#45;&gt;40 -->
<g id="edge78" class="edge"><title>46&#45;&gt;40</title>
<path fill="none" stroke="grey" stroke-width="2" d="M1216.46,-695.793C1143.52,-692.636 988.027,-681.561 952.5,-644 914.307,-603.621 919.37,-532.772 925.792,-494.087"/>
<polygon fill="grey" stroke="grey" stroke-width="2" points="929.266,-494.545 927.604,-484.081 922.378,-493.297 929.266,-494.545"/>
</g>
<!-- 46&#45;&gt;48 -->
<g id="edge82" class="edge"><title>46&#45;&gt;48</title>
<path fill="none" stroke="grey" stroke-width="2" d="M1251.34,-679.79C1246.33,-652.485 1236.51,-598.994 1230.53,-566.38"/>
<polygon fill="grey" stroke="grey" stroke-width="2" points="1233.9,-565.392 1228.65,-556.188 1227.02,-566.656 1233.9,-565.392"/>
</g>
<!-- 47 -->
<g id="node48" class="node"><title>47</title>
<path fill="none" stroke="#97d856" stroke-width="2" stroke-dasharray="5,2" d="M712.5,-636C712.5,-636 626.5,-636 626.5,-636 620.5,-636 614.5,-630 614.5,-624 614.5,-624 614.5,-612 614.5,-612 614.5,-606 620.5,-600 626.5,-600 626.5,-600 712.5,-600 712.5,-600 718.5,-600 724.5,-606 724.5,-612 724.5,-612 724.5,-624 724.5,-624 724.5,-630 718.5,-636 712.5,-636"/>
<text text-anchor="middle" x="669.5" y="-621" font-family="sans" font-size="10.00">flirt</text>
<text text-anchor="middle" x="669.5" y="-610" font-family="sans" font-size="10.00">subject: S001&#45;C001</text>
</g>
<!-- 47&#45;&gt;36 -->
<g id="edge72" class="edge"><title>47&#45;&gt;36</title>
<path fill="none" stroke="grey" stroke-width="2" d="M669.5,-599.689C669.5,-589.894 669.5,-577.422 669.5,-566.335"/>
<polygon fill="grey" stroke="grey" stroke-width="2" points="673,-566.262 669.5,-556.262 666,-566.262 673,-566.262"/>
</g>
<!-- 48&#45;&gt;37 -->
<g id="edge74" class="edge"><title>48&#45;&gt;37</title>
<path fill="none" stroke="grey" stroke-width="2" d="M1224.76,-519.697C1224.43,-511.983 1224.03,-502.712 1223.66,-494.112"/>
<polygon fill="grey" stroke="grey" stroke-width="2" points="1227.16,-493.945 1223.23,-484.104 1220.16,-494.245 1227.16,-493.945"/>
</g>
<!-- 48&#45;&gt;40 -->
<g id="edge77" class="edge"><title>48&#45;&gt;40</title>
<path fill="none" stroke="grey" stroke-width="2" d="M1189,-523.794C1184.8,-522.439 1180.57,-521.143 1176.5,-520 1113.39,-502.295 1039.73,-487.077 989.781,-477.548"/>
<polygon fill="grey" stroke="grey" stroke-width="2" points="990.283,-474.081 979.806,-475.661 988.981,-480.959 990.283,-474.081"/>
</g>
<!-- 49 -->
<g id="node50" class="node"><title>49</title>
<path fill="none" stroke="#56d8c9" stroke-width="2" stroke-dasharray="5,2" d="M1351.5,-937C1351.5,-937 1265.5,-937 1265.5,-937 1259.5,-937 1253.5,-931 1253.5,-925 1253.5,-925 1253.5,-908 1253.5,-908 1253.5,-902 1259.5,-896 1265.5,-896 1265.5,-896 1351.5,-896 1351.5,-896 1357.5,-896 1363.5,-902 1363.5,-908 1363.5,-908 1363.5,-925 1363.5,-925 1363.5,-931 1357.5,-937 1351.5,-937"/>
<text text-anchor="middle" x="1308.5" y="-925" font-family="sans" font-size="10.00">slicetimer</text>
<text text-anchor="middle" x="1308.5" y="-914" font-family="sans" font-size="10.00">scan: rest</text>
<text text-anchor="middle" x="1308.5" y="-903" font-family="sans" font-size="10.00">subject: S001&#45;C001</text>
</g>
<!-- 49&#45;&gt;38 -->
<g id="edge76" class="edge"><title>49&#45;&gt;38</title>
<path fill="none" stroke="grey" stroke-width="2" d="M1308.5,-895.689C1308.5,-887.907 1308.5,-878.842 1308.5,-870.447"/>
<polygon fill="grey" stroke="grey" stroke-width="2" points="1312,-870.319 1308.5,-860.319 1305,-870.32 1312,-870.319"/>
</g>
</g>
</svg>
